<svg xmlns="http://www.w3.org/2000/svg" viewBox="0 0 100 100">
  <defs>
    <linearGradient id="shieldOuter" x1="0%" y1="0%" x2="100%" y2="100%">
      <stop offset="0%" stop-color="#E8873A"/>
      <stop offset="100%" stop-color="#D4722A"/>
    </linearGradient>
    <linearGradient id="shieldInner" x1="0%" y1="0%" x2="100%" y2="100%">
      <stop offset="0%" stop-color="#F2A85E"/>
      <stop offset="50%" stop-color="#E8944A"/>
      <stop offset="100%" stop-color="#D4803A"/>
    </linearGradient>
  </defs>
  <rect width="100" height="100" rx="20" fill="#0F1B2D"/>
  <!-- Outer shield -->
  <path d="M50 10 C32 10 18 22 18 38 C18 60 50 88 50 88 C50 88 82 60 82 38 C82 22 68 10 50 10Z" fill="url(#shieldOuter)"/>
  <!-- Inner shield -->
  <path d="M50 18 C35 18 24 28 24 40 C24 58 50 80 50 80 C50 80 76 58 76 40 C76 28 65 18 50 18Z" fill="url(#shieldInner)"/>
  <!-- White checkmark -->
  <path d="M38 50 L46 58 L62 40" fill="none" stroke="white" stroke-width="6" stroke-linecap="round" stroke-linejoin="round"/>
</svg>
